<?xml version="1.0" encoding="UTF-8" standalone="no"?>
<!-- ####################################################################

This file was generates automatically via the 
IconPacks.Browser (MIT-License). 

Visit https://github.com/MahApps/MahApps.Metro.IconPacks and 
https://github.com/MahApps/MahApps.Metro.IconPacks/blob/develop/LICENSE 
for more information.
 
~~~~~~~~~~~~~~~~~~~~~~~~~~~~~~~~~~~~~~~~~~~~~~~~~~~~~~~~~~~~~~~~~~~~~~~~~~
 
Icon-Name: 			Android
Iconpack:			ForkAwesome
Iconpack-Homepage: 	https://forkaweso.me/
Iconpack-License:	https://github.com/ForkAwesome/Fork-Awesome/blob/master/LICENSES

#####################################################################-->

<svg
   width="140"
   height="128"
   version="1.1"
   id="svg4"
   sodipodi:docname="ForkAwesome-Android.svg"
   inkscape:version="1.2.2 (732a01da63, 2022-12-09)"
   viewBox="0 0 140 128"
   xmlns:inkscape="http://www.inkscape.org/namespaces/inkscape"
   xmlns:sodipodi="http://sodipodi.sourceforge.net/DTD/sodipodi-0.dtd"
   xmlns="http://www.w3.org/2000/svg"
   xmlns:svg="http://www.w3.org/2000/svg">
  <defs
     id="defs8" />
  <sodipodi:namedview
     id="namedview6"
     pagecolor="#ffffff"
     bordercolor="#000000"
     borderopacity="0.25"
     inkscape:showpageshadow="2"
     inkscape:pageopacity="0.0"
     inkscape:pagecheckerboard="0"
     inkscape:deskcolor="#d1d1d1"
     showgrid="false"
     showguides="true"
     inkscape:zoom="4.6238154"
     inkscape:cx="56.987569"
     inkscape:cy="62.394359"
     inkscape:window-width="1350"
     inkscape:window-height="1040"
     inkscape:window-x="2745"
     inkscape:window-y="2"
     inkscape:window-maximized="0"
     inkscape:current-layer="svg4" />
  <g
     id="g492"
     transform="translate(0.39635597)">
    <g
       id="g319"
       transform="translate(5.6421223)">
      <path
         d="m 493,1053 c 22,0 39,18 39,39 0,21 -17,39 -39,39 -21,0 -38,-18 -38,-39 0,-21 17,-39 38,-39 z m 422,0 c 21,0 38,18 38,39 0,21 -17,39 -38,39 -22,0 -39,-18 -39,-39 0,-21 17,-39 39,-39 z M 1163,850 V 184 c 0,-61 -49,-110 -109,-110 h -75 v -227 c 0,-57 -46,-103 -103,-103 -57,0 -103,46 -103,103 V 74 H 635 v -227 c 0,-57 -46,-103 -103,-103 -56,0 -102,46 -102,103 l -1,227 h -74 c -61,0 -110,49 -110,110 v 666 z m -232,405 c 140,-72 235,-210 235,-369 H 241 c 0,159 95,297 236,369 l -71,131 c -4,7 -2,16 5,20 7,3 16,1 20,-6 l 72,-132 c 61,27 129,42 201,42 72,0 140,-15 201,-42 l 72,132 c 4,7 13,9 20,6 7,-4 9,-13 5,-20 z"
         style="fill:#0000ff;stroke-linejoin:miter"
         id="path2"
         sodipodi:nodetypes="ssssssssssssssssscsscsssccscccssccccccccc"
         transform="matrix(0.07695314,0,0,-0.07695314,9.8249909,108.3)"
         class="UnoptimicedTransforms" />
    </g>
    <path
       d="M 32.710338,31.184555 14.485768,3.5656644 C 12.069958,-0.09544337 7.1657676,-1.1004183 3.5046676,1.3153977 -0.09222245,3.6888304 -1.0971924,8.5930144 1.3186276,12.254121 L 19.543198,39.873018 c 2.41581,3.661108 7.27761,4.601852 10.8745,2.228417 3.6611,-2.415813 4.708459,-7.255765 2.29264,-10.91688 z"
       style="fill:#0000ff;stroke-linejoin:miter"
       id="path329"
       sodipodi:nodetypes="sccccss" />
    <path
       d="M 137.90481,12.220339 119.68024,39.83923 c -2.41581,3.661108 -7.32,4.666083 -10.9811,2.250267 -3.59689,-2.373433 -4.60186,-7.277617 -2.18604,-10.938724 L 124.73767,3.5318763 c 2.41581,-3.66110806 7.27761,-4.601852 10.8745,-2.228417 3.6611,2.415813 4.70845,7.255765 2.29264,10.9168797 z"
       style="fill:#0000ff;stroke-linejoin:miter"
       id="path329-0"
       sodipodi:nodetypes="sccccss" />
  </g>
</svg>
