<?xml version="1.0" encoding="UTF-8" standalone="no"?>

<!-- ####################################################################

This file was generates automatically via the 
IconPacks.Browser (MIT-License). 

Visit https://github.com/MahApps/MahApps.Metro.IconPacks and 
https://github.com/MahApps/MahApps.Metro.IconPacks/blob/develop/LICENSE 
for more information.
 
~~~~~~~~~~~~~~~~~~~~~~~~~~~~~~~~~~~~~~~~~~~~~~~~~~~~~~~~~~~~~~~~~~~~~~~~~~
 
Icon-Name: 			DragHandleDots2
Iconpack:			RadixIcons
Iconpack-Homepage: 	https://icons.modulz.app/
Iconpack-License:	https://github.com/modulz/radix-icons/blob/master/LICENSE

#####################################################################-->


<svg xmlns="http://www.w3.org/2000/svg"
     width="128"
     height="128"
     viewBox="0 0 129 129">
    <path d="M110 207.5C122.4264 207.5 132.5 217.5736 132.5 230C132.5 242.4264 122.4264 252.5 110 252.5C97.5736 252.5 87.5 242.4264 87.5 230C87.5 217.5736 97.5736 207.5 110 207.5zM190 207.5C202.426 207.5 212.5 217.5736 212.5 230C212.5 242.4264 202.426 252.5 190 252.5C177.5736 252.5 167.5 242.4264 167.5 230C167.5 217.5736 177.5736 207.5 190 207.5zM212.5 150C212.5 137.5736 202.426 127.5 190 127.5C177.5736 127.5 167.5 137.5736 167.5 150C167.5 162.4264 177.5736 172.5 190 172.5C202.426 172.5 212.5 162.4264 212.5 150zM110 127.5C122.4264 127.5 132.5 137.5736 132.5 150C132.5 162.4264 122.4264 172.5 110 172.5C97.5736 172.5 87.5 162.4264 87.5 150C87.5 137.5736 97.5736 127.5 110 127.5zM212.5 70C212.5 57.574 202.426 47.5 190 47.5C177.5736 47.5 167.5 57.574 167.5 70C167.5 82.426 177.5736 92.5 190 92.5C202.426 92.5 212.5 82.426 212.5 70zM110 47.5C122.4264 47.5 132.5 57.574 132.5 70C132.5 82.426 122.4264 92.5 110 92.5C97.5736 92.5 87.5 82.426 87.5 70C87.5 57.574 97.5736 47.5 110 47.5z"
          style="fill:#0000FF;
                 stroke-width:0;
                 stroke-linecap:flat;
                 stroke-linejoin:miter;"
          transform="matrix(0.624390243902439,0,0,-0.624390243902439,-29.658536585365855,157.65853658536585)" />
</svg>