<?xml version="1.0" encoding="UTF-8" standalone="no"?>

<!-- ####################################################################

This file was generates automatically via the 
IconPacks.Browser (MIT-License). 

Visit https://github.com/MahApps/MahApps.Metro.IconPacks and 
https://github.com/MahApps/MahApps.Metro.IconPacks/blob/develop/LICENSE 
for more information.
 
~~~~~~~~~~~~~~~~~~~~~~~~~~~~~~~~~~~~~~~~~~~~~~~~~~~~~~~~~~~~~~~~~~~~~~~~~~
 
Icon-Name: 			Image
Iconpack:			Unicons
Iconpack-Homepage: 	https://iconscout.com/unicons
Iconpack-License:	https://github.com/Iconscout/unicons/blob/master/LICENSE

#####################################################################-->


<svg xmlns="http://www.w3.org/2000/svg"
     width="128"
     height="128"
     viewBox="0 0 129 129">
    <path d="M19,4H5A3,3,0,0,0,2,7V17a3,3,0,0,0,3,3H19a3,3,0,0,0,3-3V7A3,3,0,0,0,19,4ZM5,18a1,1,0,0,1-1-1V14.58l3.3-3.29a1,1,0,0,1,1.4,0L15.41,18Zm15-1a1,1,0,0,1-1,1h-.77l-3.81-3.83.88-.88a1,1,0,0,1,1.4,0L20,16.58Zm0-3.24-1.88-1.87a3.06,3.06,0,0,0-4.24,0l-.88.88L10.12,9.89a3.06,3.06,0,0,0-4.24,0L4,11.76V7A1,1,0,0,1,5,6H19a1,1,0,0,1,1,1Z"
          style="fill:#0000FF;
                 stroke-width:0;
                 stroke-linecap:flat;
                 stroke-linejoin:miter;"
          transform="matrix(6.4,0,0,6.4,-12.8,-12.8)" />
</svg>