<?xml version="1.0" encoding="UTF-8" standalone="no"?>

<!-- ####################################################################

This file was generates automatically via the 
IconPacks.Browser (MIT-License). 

Visit https://github.com/MahApps/MahApps.Metro.IconPacks and 
https://github.com/MahApps/MahApps.Metro.IconPacks/blob/develop/LICENSE 
for more information.
 
~~~~~~~~~~~~~~~~~~~~~~~~~~~~~~~~~~~~~~~~~~~~~~~~~~~~~~~~~~~~~~~~~~~~~~~~~~
 
Icon-Name: 			FocusTarget
Iconpack:			Unicons
Iconpack-Homepage: 	https://iconscout.com/unicons
Iconpack-License:	https://github.com/Iconscout/unicons/blob/master/LICENSE

#####################################################################-->


<svg xmlns="http://www.w3.org/2000/svg"
     width="128"
     height="128"
     viewBox="0 0 129 129">
    <path d="M3,9A1,1,0,0,0,4,8V5A1,1,0,0,1,5,4H8A1,1,0,0,0,8,2H5A3,3,0,0,0,2,5V8A1,1,0,0,0,3,9ZM8,20H5a1,1,0,0,1-1-1V16a1,1,0,0,0-2,0v3a3,3,0,0,0,3,3H8a1,1,0,0,0,0-2Zm9-7a1,1,0,0,0,0-2H15.86A4,4,0,0,0,13,8.14V7a1,1,0,0,0-2,0V8.14A4,4,0,0,0,8.14,11H7a1,1,0,0,0,0,2H8.14A4,4,0,0,0,11,15.86V17a1,1,0,0,0,2,0V15.86A4,4,0,0,0,15.86,13Zm-5,1a2,2,0,1,1,2-2A2,2,0,0,1,12,14Zm9,1a1,1,0,0,0-1,1v3a1,1,0,0,1-1,1H16a1,1,0,0,0,0,2h3a3,3,0,0,0,3-3V16A1,1,0,0,0,21,15ZM19,2H16a1,1,0,0,0,0,2h3a1,1,0,0,1,1,1V8a1,1,0,0,0,2,0V5A3,3,0,0,0,19,2Z"
          style="fill:#0000FF;
                 stroke-width:0;
                 stroke-linecap:flat;
                 stroke-linejoin:miter;"
          transform="matrix(6.4,0,0,6.4,-12.8,-12.8)" />
</svg>