<?xml version="1.0" encoding="UTF-8" standalone="no"?>

<!-- ####################################################################

This file was generates automatically via the 
IconPacks.Browser (MIT-License). 

Visit https://github.com/MahApps/MahApps.Metro.IconPacks and 
https://github.com/MahApps/MahApps.Metro.IconPacks/blob/develop/LICENSE 
for more information.
 
~~~~~~~~~~~~~~~~~~~~~~~~~~~~~~~~~~~~~~~~~~~~~~~~~~~~~~~~~~~~~~~~~~~~~~~~~~
 
Icon-Name: 			Touch
Iconpack:			VaadinIcons
Iconpack-Homepage: 	https://vaadin.com/icons
Iconpack-License:	https://github.com/vaadin/vaadin-icons/blob/master/LICENSE

#####################################################################-->


<svg xmlns="http://www.w3.org/2000/svg"
     width="128"
     height="128"
     viewBox="0 0 129 129">
    <path d="M807.68 576c-5.96 1.467-12.802 2.309-19.84 2.309s-13.88-0.842-20.431-2.43c-2.909 21.094-12.261 39.448-25.71 53.947-16.416 16.571-39.265 26.872-64.52 26.872-1.146 0-2.288-0.021-3.423-0.063-0.026 0.006-0.251 0.007-0.476 0.007-14.078 0-27.496-2.823-39.72-7.934-3.951 11.7-10.448 21.484-18.532 29.705-16.726 15.977-39.456 25.817-64.485 25.817-2.302 0-4.585-0.083-6.846-0.247l0.303 0.018c20.166 26.484 32.308 60.029 32.308 96.409 0 88.366-71.634 160-160 160s-160-71.634-160-160c0-52.030 24.835-98.259 63.297-127.481l0.395-170.528c-35.436-0.986-67.44-14.917-91.617-37.209-36.383-39.591-36.383-101.031-36.383-177.831 0-14.72 0-30.080 0-46.080 2.017-72.127 36.697-135.761 89.713-176.886l22.927-22.794c79.36-81.28 152.32-105.6 321.28-105.6 184.32 0 270.080 103.040 270.080 323.84v160.64c0 49.28-14.080 135.68-88.32 155.52zM832 425.6v-165.76c0-215.68-82.56-259.84-206.080-259.84-166.4 0-217.6 24.96-275.2 85.12l-23.040 23.68c-42.041 29.947-69.66 77.789-71.671 132.174-0.009 16.946-0.009 32.306-0.009 47.026-2.14 11.391-3.364 24.495-3.364 37.885 0 34.438 8.095 66.985 22.486 95.842 11.93 8.441 27.616 14.57 44.694 15.386l0.183-44.793v14.080l-21.76-96c-0.639-1.413-1.012-3.063-1.012-4.8 0-6.568 5.324-11.892 11.892-11.892 4.83 0 8.988 2.88 10.85 7.017l64.030 77.515c0.189 0.866 0.298 1.86 0.298 2.88s-0.108 2.014-0.314 2.973l0.017 358.947c-0.027 0.751-0.043 1.634-0.043 2.52 0 16.367 5.296 31.497 14.269 43.77 5.822 6.132 14.271 10.081 23.642 10.081 0.637 0 1.271-0.018 1.899-0.054-0.084 0.004-0.082 0.004-0.079 0.004 13.432 0 24.32-10.888 24.32-24.32 0-0.225-0.003-0.449-0.009-0.673l0.001-247.647c0-17.673 14.327-32 32-32s32 14.327 32 32v84.48c0.671 16.081 13.871 28.863 30.055 28.863 0.684 0 1.363-0.023 2.036-0.068 1.466 0.325 3.256 0.509 5.088 0.509 14.845 0 26.88-12.035 26.88-26.88 0-0.628-0.022-1.25-0.064-1.867l0.005-85.037c0-17.673 14.327-32 32-32s32 14.327 32 32v40.96c2.149 13.966 14.082 24.536 28.483 24.536 1.24 0 2.461-0.078 3.66-0.23 0.81 0.132 1.914 0.198 3.032 0.198 7.174 0 13.707-2.745 18.605-7.242 6.376-8.287 10.231-18.837 10.231-30.287 0-0.371-0.004-0.741-0.012-1.11l0.001-52.425c0.213-16.148 12.355-29.396 28.004-31.344 1.374-0.177 2.783-0.269 4.212-0.269 15.392 0 28.296 10.654 31.739 24.991 1.645 7.148 5.269 13.060 10.251 17.473 2.104 0.977 4.525 1.529 7.074 1.529s4.97-0.552 7.148-1.543c24.29-15.94 40.182-43.151 40.182-74.074 0-3.652-0.222-7.251-0.652-10.787l0.042 0.425z"
          style="fill:#0000FF;
                 stroke-width:0;
                 stroke-linecap:flat;
                 stroke-linejoin:miter;"
          transform="matrix(0.1249500963843116,0,0,-0.1249500963843116,-3.972852433065515,120.0033187128633)" />
</svg>